<?xml version="1.0" encoding="utf-8"?>
<!-- Generator: Adobe Illustrator 16.0.0, SVG Export Plug-In . SVG Version: 6.00 Build 0)  -->
<!DOCTYPE svg PUBLIC "-//W3C//DTD SVG 1.1//EN" "http://www.w3.org/Graphics/SVG/1.1/DTD/svg11.dtd">
<svg version="1.1" id="Layer_1" xmlns="http://www.w3.org/2000/svg" xmlns:xlink="http://www.w3.org/1999/xlink" x="0px" y="0px"
	 width="246px" height="89.5px" viewBox="0 0 246 89.5" enable-background="new 0 0 246 89.5" xml:space="preserve">
<path fill="#9B9A9A" d="M184.816,86.44h-10.082V55.334h-5.545v-7.197h5.545v-3.096c0-7.92,4.32-10.944,11.232-10.944
	c2.953,0,4.322,0.072,5.186,0.144v8.137h-2.809c-3.457,0-3.527,1.08-3.527,4.249v1.511h6.553v7.197h-6.553V86.44z M203.072,43.602
	H192.99V34.24h10.082V43.602z M203.072,48.137V86.44H192.99V48.137H203.072z"/>
<g>
	<path fill="#F16E71" d="M100.143,69.229v-1.8c0-17.497-10.44-21.098-18.002-21.098c-9.901,0-14.509,5.142-16.624,10.304
		l12.66,12.594H100.143z M81.998,54.611c3.24,0,7.2,1.873,7.776,8.064H74.148C74.724,57.637,77.245,54.611,81.998,54.611z"/>
	<path fill="#F16E71" d="M82.861,86.654c0.078,0,0.158-0.006,0.236-0.006L63.82,67.471C64.425,81.856,72.476,86.654,82.861,86.654z"
		/>
	<path fill="#F16E71" d="M99.71,74.414H89.341c-0.42,1.451-1.436,2.526-2.709,3.227l6.272,6.24
		C95.893,81.966,98.402,78.939,99.71,74.414z"/>
	<g>
		<path fill="#F16E71" d="M61.558,64.147c-0.017-0.473-0.028-0.952-0.028-1.446c0-1.271,0.134-4.395,1.28-7.717l10.55,10.494h-3.328
			l0.083,0.824c0.304,3.055,0.998,10.037,9.746,10.037c1.249,0,2.516-0.277,3.625-0.786l5.206,5.179
			c-2.964,1.652-6.056,2.101-8.292,2.16L61.558,64.147z"/>
	</g>
</g>
<path fill="#F16E71" d="M131.578,77.959c0,4.536,1.008,5.544,2.232,5.977v1.512h-10.873c-0.576-1.801-0.72-2.376-0.936-4.537
	c-2.305,2.377-5.545,5.545-12.385,5.545c-5.762,0-11.666-3.24-11.666-11.16c0-7.489,4.753-11.306,11.161-12.242l9.073-1.367
	c1.584-0.217,3.527-0.864,3.527-3.024c0-4.249-4.031-4.464-6.624-4.464c-5.04,0-5.904,3.096-6.192,5.328h-9.721
	c1.152-11.738,9.289-13.395,17.137-13.395c5.4,0,15.265,1.656,15.265,11.09V77.959z M121.713,66.798
	c-1.008,0.792-2.664,1.44-6.84,2.088c-4.265,0.735-6.841,1.497-6.841,5.761c0,3.528,2.736,4.608,4.681,4.608c4.465,0,9-2.88,9-7.562
	V66.798z"/>
<g>
	<g>
		<path fill="#F16E71" d="M143.555,62.202l13.173-15.638l6.718,4.006l-8.955,10.686l13.527,21.976l-3.096,0.198L143.555,62.202z
			 M134.561,53.266V33.99l8.582,7.07v20.732L134.561,53.266z"/>
	</g>
	<polygon fill="#F16E71" points="135.709,55.914 135.709,86.237 145.789,86.237 145.789,74.639 149.967,70.318 159.111,86.237 
		166.529,86.536 	"/>
</g>
<polygon fill="#F16E71" points="10.122,10.697 11.297,12.445 11.246,10.613 8.455,7.61 6.445,6.483 "/>
<polygon fill="#F16E71" points="34.85,26.27 35.558,26.578 35.348,26.189 34.626,25.549 "/>
<polygon fill="#F16E71" points="49.406,24.023 50.05,26.379 50.746,27.369 51.646,25.89 50.244,24.702 "/>
<polygon fill="#F16E71" points="56.968,35.783 58.25,37.412 58.286,35.921 58.321,34.431 "/>
<polygon fill="#F16E71" points="62.364,36.531 61.113,37.781 61.624,38.293 62.182,37.6 "/>
<polygon fill="#F16E71" points="59.59,42.215 59.937,44.018 60.214,41.592 "/>
<polyline fill="#F16E71" points="52.402,43.209 54.03,43.917 51.965,40.304 51.445,41.99 "/>
<polygon fill="#F16E71" points="52.078,49.64 43.838,41.404 43.85,40.011 52.059,48.218 "/>
<g>
	<g>
		<polygon fill="#F16E71" points="17.213,34.73 7.132,34.793 7.139,37.814 17.213,47.888 		"/>
		<path fill="#F16E71" d="M25.422,55.183c5.557,0,7.916,4.279,8.445,9.36l8.703,8.702c0.43-2.255,0.621-4.646,0.621-7.062
			c0-13.249-5.837-18.25-15.703-18.453c-4.273-0.088-7.371,0.816-8.99,1.442l6.059,6.06C24.84,55.209,25.12,55.183,25.422,55.183z"
			/>
		<g>
			<path fill="#F16E71" d="M35.531,75.779c1.015-2.388,1.236-5.045,1.236-6.908c0-0.149-0.001-0.299-0.004-0.448l7.022,7.021
				c-0.501,2.446-1.271,4.569-2.295,6.33L35.531,75.779z"/>
		</g>
		<path fill="#F16E71" d="M25.709,78.513c-6.408,0-8.929-5.329-8.929-11.017c0-2.809,0.372-5.623,1.433-7.855L7.166,48.592
			l0.089,37.217l9.742-0.016v-4.832h0.145c2.448,4.32,6.912,5.832,11.089,5.832c5.39,0,9.028-2.268,11.368-5.77l-7.086-7.086
			C31.282,76.5,29.167,78.513,25.709,78.513z"/>
	</g>
	<polygon fill="#F16E71" points="34.2,77.026 25.96,68.788 25.972,67.394 34.181,75.603 	"/>
</g>
<polygon fill="#F16E71" points="57.17,21.721 51.445,13.055 48.303,10.992 53.533,19.573 "/>
<g>
	<path fill="#F16E71" d="M66.705,57.846c-0.078,0,0.013-9.302,0.013-9.302c-2.976-0.241-5.837-0.228-8.472,0.425L66.705,57.846z"/>
	<path fill="#F16E71" d="M60.863,54.492c0.603-0.005,1.2-0.002,1.802-0.001l-6.613-6.609c-1.091,0.271-2.147,0.639-3.15,1.163
		c-0.644-0.725-1.092-1.379-1.609-1.418c-2.306-0.17-4.632-0.016-7.052-0.016c0,0.634,0,1.249,0,1.879l9.112,9.112
		C54.76,56.061,57.44,54.516,60.863,54.492z"/>
</g>
<g>
	<path fill="#F16E71" d="M53.354,65.213c0.006-1.687,0.397-3.184,1.094-4.44l-9.112-9.112c0,9.75,0,14.938,0,24.359l8.01,7.945
		C53.341,79.598,53.332,71.349,53.354,65.213z"/>
	<g>
		<polygon fill="#F16E71" points="47.568,86.252 47.568,79.228 54.078,85.737 54.078,86.252 		"/>
	</g>
</g>
<path fill="#F16E71" d="M53.263,70.543"/>
<path fill="#F16E71" stroke="#8DC63F" stroke-width="0.1" stroke-miterlimit="10" d="M53.6,83.965"/>
<path fill="#F16E71" stroke="#8DC63F" stroke-width="0.1" stroke-miterlimit="10" d="M31.904,62.269"/>
<polyline fill="#F16E71" points="61.88,45.438 62.665,44.813 62.665,45.438 61.739,46.248 "/>
<polygon fill="#F16E71" points="57.533,48.313 59.109,44.953 58.7,47.604 "/>
<polygon fill="#F16E71" points="56.372,43.695 55.263,50.844 55.934,53.852 57.262,47.097 "/>
<polygon fill="#F16E71" points="54.64,46.99 54.096,55.322 52.503,56.809 52.38,51.368 "/>
<polygon fill="#F16E71" points="43.23,47.243 47.935,52.739 53.684,51.67 50.66,47.243 "/>
<path fill="#9A9A99" d="M242.055,86.44h-12.436l-6.613-11.502l-6.615,11.502h-12.148l13.013-19.481l-12.509-18.763h12.221
	l6.47,11.143l6.326-11.143h11.861l-12.581,18.763L242.055,86.44z"/>
<g>
	<path fill="#F16E71" d="M9.915,50.28l-0.021-8.651l15.094,15.094c-2.13,0.515-3.791,1.745-4.957,3.674L9.915,50.28z"/>
</g>
<path fill="none" stroke="#00A651" stroke-width="0.25" stroke-miterlimit="10" d="M55.244,86.438"/>
<path fill="none" stroke="#00A651" stroke-width="0.25" stroke-miterlimit="10" d="M30.08,61.274"/>
</svg>
